<svg xmlns="http://www.w3.org/2000/svg" xmlns:xlink="http://www.w3.org/1999/xlink" width="622" height="102" viewBox="0 0 622 102" fill="none"><g filter="url(#filter_16_25)"><rect  x="11" y="5.745849609375" width="600" height="70.508544921875" rx="10"    fill="#EDEDED" ></rect><rect x="11" y="5.745849609375" width="21.7706298828125" height="70.508544921875"   fill="url(#linear_fill_16_12)" ></rect><rect x="11" y="5.745849609375" width="21.7706298828125" height="2.7119140625"   fill="url(#linear_fill_16_15)" ></rect><rect x="11" y="73.54248046875" width="21.7706298828125" height="2.7119140625"   fill="url(#linear_fill_16_16)" ></rect><path     fill="url(#linear_fill_16_13_0)"  d="M20.9702 1L22.7993 1C25.4203 1 27.5451 3.12476 27.5451 5.74579L27.5451 5.74579L16.2244 5.74579L16.2244 5.74579C16.2244 3.12476 18.3491 1 20.9702 1Z"></path><path     fill="url(#linear_fill_16_17_0)"  d="M22.7997 81L20.9706 81C18.3496 81 16.2248 78.8752 16.2248 76.2542L16.2248 76.2542L27.5455 76.2542L27.5455 76.2542C27.5455 78.8752 25.4208 81 22.7997 81Z"></path><rect x="589.228515625" y="5.745849609375" width="21.770751953125" height="70.508544921875"   fill="url(#linear_fill_16_20)" ></rect><rect x="589.228515625" y="5.745849609375" width="21.770751953125" height="2.7119140625"   fill="url(#linear_fill_16_21)" ></rect><rect x="589.228515625" y="73.54248046875" width="21.770751953125" height="2.7119140625"   fill="url(#linear_fill_16_22)" ></rect><path     fill="url(#linear_fill_16_23_0)"  d="M599.201 1L601.03 1C603.651 1 605.776 3.12476 605.776 5.74579L605.776 5.74579L594.455 5.74579L594.455 5.74579C594.455 3.12476 596.58 1 599.201 1Z"></path><path     fill="url(#linear_fill_16_24_0)"  d="M601.029 81L599.199 81C596.578 81 594.454 78.8752 594.454 76.2542L594.454 76.2542L605.774 76.2542L605.774 76.2542C605.774 78.8752 603.65 81 601.029 81Z"></path></g><defs><linearGradient id="linear_fill_16_12" x1="11" y1="41.0001220703125" x2="32.7706298828125" y2="41.0001220703125" gradientUnits="userSpaceOnUse"><stop offset="0" stop-color="#FF9191"  /><stop offset="0.486" stop-color="#E8E8E8"  /><stop offset="1" stop-color="#F76363"  /></linearGradient><linearGradient id="linear_fill_16_15" x1="11" y1="7.101806640625" x2="32.7706298828125" y2="7.101806640625" gradientUnits="userSpaceOnUse"><stop offset="0" stop-color="#FF3030"  /><stop offset="0.486" stop-color="#FFA6A6"  /><stop offset="0.6458" stop-color="#FF7F7F"  /><stop offset="1" stop-color="#FF4545"  /></linearGradient><linearGradient id="linear_fill_16_16" x1="11" y1="74.8984375" x2="32.7706298828125" y2="74.8984375" gradientUnits="userSpaceOnUse"><stop offset="0" stop-color="#FF3030"  /><stop offset="0.486" stop-color="#FFA6A6"  /><stop offset="0.6458" stop-color="#FF7F7F"  /><stop offset="1" stop-color="#FF4545"  /></linearGradient><linearGradient id="linear_fill_16_13_0" x1="16.224365234375" y1="3.372802734375" x2="27.545166015625" y2="3.372802734375" gradientUnits="userSpaceOnUse"><stop offset="0" stop-color="#FFC266"  /><stop offset="0.486" stop-color="#FFE7BA"  /><stop offset="1" stop-color="#FFC457"  /></linearGradient><linearGradient id="linear_fill_16_17_0" x1="27.5455322265625" y1="78.627197265625" x2="16.2247314453125" y2="78.627197265625" gradientUnits="userSpaceOnUse"><stop offset="0" stop-color="#FFC266"  /><stop offset="0.486" stop-color="#FFE7BA"  /><stop offset="1" stop-color="#FFC457"  /></linearGradient><linearGradient id="linear_fill_16_20" x1="589.228515625" y1="41.0001220703125" x2="610.999267578125" y2="41.0001220703125" gradientUnits="userSpaceOnUse"><stop offset="0" stop-color="#FF9191"  /><stop offset="0.486" stop-color="#E8E8E8"  /><stop offset="1" stop-color="#F76363"  /></linearGradient><linearGradient id="linear_fill_16_21" x1="589.228515625" y1="7.101806640625" x2="610.999267578125" y2="7.101806640625" gradientUnits="userSpaceOnUse"><stop offset="0" stop-color="#FF3030"  /><stop offset="0.486" stop-color="#FFA6A6"  /><stop offset="0.6458" stop-color="#FF7F7F"  /><stop offset="1" stop-color="#FF4545"  /></linearGradient><linearGradient id="linear_fill_16_22" x1="589.228515625" y1="74.8984375" x2="610.999267578125" y2="74.8984375" gradientUnits="userSpaceOnUse"><stop offset="0" stop-color="#FF3030"  /><stop offset="0.486" stop-color="#FFA6A6"  /><stop offset="0.6458" stop-color="#FF7F7F"  /><stop offset="1" stop-color="#FF4545"  /></linearGradient><linearGradient id="linear_fill_16_23_0" x1="594.455078125" y1="3.372802734375" x2="605.77587890625" y2="3.372802734375" gradientUnits="userSpaceOnUse"><stop offset="0" stop-color="#FFC266"  /><stop offset="0.486" stop-color="#FFE7BA"  /><stop offset="1" stop-color="#FFC457"  /></linearGradient><linearGradient id="linear_fill_16_24_0" x1="605.7744140625" y1="78.627197265625" x2="594.45361328125" y2="78.627197265625" gradientUnits="userSpaceOnUse"><stop offset="0" stop-color="#FFC266"  /><stop offset="0.486" stop-color="#FFE7BA"  /><stop offset="1" stop-color="#FFC457"  /></linearGradient><filter id="filter_16_25" x="0" y="0" width="622" height="102" filterUnits="userSpaceOnUse" color-interpolation-filters="sRGB"><feFlood flood-opacity="0" result="feFloodId_16_25"/><feColorMatrix in="SourceAlpha" type="matrix" values="0 0 0 0 0 0 0 0 0 0 0 0 0 0 0 0 0 0 127 0" result="hardAlpha_16_25"/><feOffset dx="0" dy="10"/><feGaussianBlur stdDeviation="5.5"/><feComposite in2="hardAlpha_16_25" operator="out"/><feColorMatrix type="matrix" values="0 0 0 0 0 0 0 0 0 0 0 0 0 0 0 0 0 0 0.25 0"/><feBlend mode="normal" in2="feFloodId_16_25" result="dropShadow_1_16_25"/><feBlend mode="normal" in="SourceGraphic" in2="dropShadow_1_16_25" result="shape_16_25"/></filter></defs></svg>